<?xml version="1.0" encoding="utf-8"?>
<!-- Generator: Adobe Illustrator 28.2.0, SVG Export Plug-In . SVG Version: 6.00 Build 0)  -->
<svg version="1.1" id="Слой_1" xmlns="http://www.w3.org/2000/svg" xmlns:xlink="http://www.w3.org/1999/xlink" x="0px" y="0px"
	 viewBox="0 0 2500 2031.7" style="enable-background:new 0 0 2500 2031.7;" xml:space="preserve">
<style type="text/css">
	.st0{fill:#FFFFFF;}
</style>
<path class="st0" d="M2500,240.5c-91.9,40.7-190.7,68.3-294.5,80.7c105.9-63.4,187.2-164.1,225.5-283.8
	c-99.1,58.8-208.9,101.5-325.7,124.4C2011.7,62.3,1878.5,0,1730.9,0C1447.7,0,1218,229.7,1218,513.1c0,39.3,4.4,78.4,13.2,116.7
	C804.8,608.3,427,404.1,174,93.8c-44,76-69.4,164.1-69.4,257.9c0,177.9,90.6,335,228.1,427c-81.4-2.6-161.1-24.6-232.3-64.2v6.6
	c0,248.5,176.7,455.8,411.5,503c-44,11.9-89.5,17.9-135.1,17.8c-32.4,0-64.7-3-96.6-9c65.4,203.5,254.8,351.9,479.3,355.9
	c-175.6,137.6-396.8,219.7-637.1,219.7c-41.4,0-82.2-2.4-122.4-7.2c227,145.7,496.6,230.4,786.1,230.4
	c943.6,0,1459.4-781.5,1459.4-1459.3c0-22-0.6-44.3-1.5-66.3c100.2-72.5,187.2-162.6,255.8-265.3L2500,240.5z"/>
</svg>
