<?xml version="1.0" encoding="utf-8"?>
<!-- Generator: Adobe Illustrator 28.2.0, SVG Export Plug-In . SVG Version: 6.00 Build 0)  -->
<svg version="1.1"
	 id="Слой_1" image-rendering="optimizeQuality" shape-rendering="geometricPrecision" text-rendering="geometricPrecision"
	 xmlns="http://www.w3.org/2000/svg" xmlns:xlink="http://www.w3.org/1999/xlink" x="0px" y="0px" viewBox="0 0 283.5 282.1"
	 style="enable-background:new 0 0 283.5 282.1;" xml:space="preserve">
<style type="text/css">
	.st0{fill-rule:evenodd;clip-rule:evenodd;fill:#FFFFFF;}
</style>
<path class="st0" d="M34.3,0h214.9c18.9,0,34.3,15.4,34.3,34.3v213.5c0,18.9-15.4,34.3-34.3,34.3H34.3C15.4,282.1,0,266.6,0,247.8
	V34.3C0,15.4,15.4,0,34.3,0z M30.6,116.1h28.3c-2.9,8.6-4.6,17.8-4.6,27.4c0,47.3,39.1,85.5,87.4,85.5s87.4-38.3,87.4-85.5
	c0-9.6-1.6-18.8-4.6-27.4h28.3v118.8c0,8.4-6.9,15.3-15.3,15.3H44.7c-7.8,0-14.1-6.3-14.1-14.1V116.1z M206.2,27.9h32.9
	c7.4,0,13.5,6.1,13.5,13.5v30.6c0,7.4-6.1,13.5-13.5,13.5h-32.9c-7.4,0-13.5-6.1-13.5-13.5V41.5C192.7,34,198.8,27.9,206.2,27.9z
	 M141.8,83.2c31.3,0,56.7,24.9,56.7,55.6s-25.4,55.6-56.7,55.6s-56.7-24.9-56.7-55.6S110.5,83.2,141.8,83.2z"/>
</svg>
