<?xml version="1.0" encoding="UTF-8"?>
<svg xmlns="http://www.w3.org/2000/svg" version="1.1" viewBox="0 0 94.64 94.65">
  <defs>
    <style>
      .cls-1 {
        fill: #fff;
      }
    </style>
  </defs>
  <!-- Generator: Adobe Illustrator 28.6.0, SVG Export Plug-In . SVG Version: 1.2.0 Build 709)  -->
  <g>
    <g id="_Слой_1" data-name="Слой_1">
      <path class="cls-1" d="M92.04,85.42l-19.76-19.76c5.45-6.88,8.68-15.59,8.68-25.04C80.96,18.27,62.85.15,40.49.15S0,18.27,0,40.62s18.14,40.49,40.49,40.49c8.86,0,17.07-2.85,23.75-7.73l19.92,19.92c.89.91,2.07,1.34,3.26,1.34s2.39-.43,3.28-1.34l1.34-1.32c1.78-1.8,1.78-4.76,0-6.56ZM57.68,66.83c-4.92,3.28-10.82,5.17-17.18,5.17-17.3,0-31.38-14.08-31.38-31.38s14.08-31.36,31.38-31.36,31.36,14.06,31.36,31.36c0,6.95-2.26,13.35-6.08,18.55-2.21,3.03-4.97,5.63-8.09,7.66Z"/>
    </g>
  </g>
</svg>