<?xml version="1.0" encoding="UTF-8"?>
<svg xmlns="http://www.w3.org/2000/svg" version="1.1" viewBox="0 0 137.1 131.4">
  <defs>
    <style>
      .cls-1 {
        fill-opacity: 0;
      }

      .cls-1, .cls-2 {
        fill: #fff;
      }

      .cls-2 {
        fill-opacity: .9;
      }
    </style>
  </defs>
  <!-- Generator: Adobe Illustrator 28.6.0, SVG Export Plug-In . SVG Version: 1.2.0 Build 709)  -->
  <g>
    <g id="_Слой_1" data-name="Слой_1">
      <g>
        <rect class="cls-1" width="137.1" height="136.9"/>
        <path class="cls-2" d="M0,86.9c0,9.6,7.9,17.5,17.5,17.5s17.4-7.9,17.4-17.5-7.9-17.5-17.4-17.5S0,77.3,0,86.9ZM8.3,86.9c0-5.1,4-9.1,9.1-9.1s9.1,4,9.1,9.1-4,9.1-9.1,9.1-9.1-4-9.1-9.1ZM17.5,0c-2.9,0-5.2,2.3-5.2,5.2v69.7h10.4V5.2c0-2.9-2.3-5.2-5.2-5.2ZM17.5,131.4c2.9,0,5.2-2.3,5.2-5v-26.5h-10.4v26.5c0,2.7,2.3,5,5.2,5ZM51,42.2c0,9.6,7.9,17.4,17.4,17.4s17.5-7.9,17.5-17.4-7.9-17.5-17.5-17.5-17.4,7.9-17.4,17.5ZM59.4,42.2c0-5.1,4-9.1,9.1-9.1s9.1,4,9.1,9.1-4,9.1-9.1,9.1-9.1-4-9.1-9.1ZM68.5,0c-2.9,0-5.2,2.3-5.2,4.9v24.5h10.4V4.9c0-2.6-2.3-4.9-5.2-4.9ZM68.5,131.4c2.9,0,5.2-2.3,5.2-5.2V54.3h-10.4v71.8c0,2.9,2.3,5.2,5.2,5.2ZM102.2,86.9c0,9.6,7.9,17.5,17.4,17.5s17.5-7.9,17.5-17.5-7.9-17.5-17.5-17.5-17.4,7.9-17.4,17.5ZM110.4,86.9c0-5.1,4.1-9.1,9.2-9.1s9.1,4,9.1,9.1-4,9.1-9.1,9.1-9.2-4-9.2-9.1ZM119.5,0c-2.9,0-5.2,2.3-5.2,5.2v69.8h10.4V5.2c0-2.9-2.3-5.2-5.2-5.2ZM119.5,131.4c2.9,0,5.2-2.3,5.2-5v-27.2h-10.4v27.2c0,2.7,2.3,5,5.2,5Z"/>
      </g>
    </g>
  </g>
</svg>